<svg width="24" height="24" viewBox="0 0 24 24" fill="none" xmlns="http://www.w3.org/2000/svg">
<g clip-path="url(#clip0_2_107)">
<path d="M12 2C13.0609 2 14.0783 2.42143 14.8284 3.17157C15.5786 3.92172 16 4.93913 16 6H18.035C18.5532 5.99993 19.0512 6.20099 19.4241 6.56081C19.7969 6.92064 20.0156 7.41114 20.034 7.929L20.462 19.929C20.4715 20.1974 20.4269 20.4649 20.3308 20.7157C20.2347 20.9665 20.0891 21.1953 19.9026 21.3886C19.7162 21.5819 19.4927 21.7356 19.2455 21.8407C18.9984 21.9457 18.7326 21.9999 18.464 22H5.536C5.26745 21.9999 5.00166 21.9457 4.75449 21.8407C4.50733 21.7356 4.28385 21.5819 4.09739 21.3886C3.91093 21.1953 3.7653 20.9665 3.66919 20.7157C3.57309 20.4649 3.52847 20.1974 3.538 19.929L3.966 7.929C3.9844 7.41114 4.20307 6.92064 4.57595 6.56081C4.94884 6.20099 5.44682 5.99993 5.965 6H8C8 4.93913 8.42143 3.92172 9.17158 3.17157C9.92172 2.42143 10.9391 2 12 2ZM8 8H5.965L5.536 20H18.464L18.035 8H16V9C15.9997 9.25488 15.9021 9.50003 15.7272 9.68537C15.5522 9.8707 15.3131 9.98224 15.0586 9.99717C14.8042 10.0121 14.5536 9.92933 14.3582 9.76574C14.1627 9.60215 14.0371 9.3701 14.007 9.117L14 9V8H10V9C9.99972 9.25488 9.90212 9.50003 9.72716 9.68537C9.55219 9.8707 9.31305 9.98224 9.05861 9.99717C8.80417 10.0121 8.55362 9.92933 8.35817 9.76574C8.16272 9.60215 8.03711 9.3701 8.007 9.117L8 9V8ZM12 4C11.4954 3.99984 11.0094 4.19041 10.6395 4.5335C10.2695 4.87659 10.0428 5.34684 10.005 5.85L10 6H14C14 5.46957 13.7893 4.96086 13.4142 4.58579C13.0391 4.21071 12.5304 4 12 4Z" fill="#5C5C5E"/>
</g>
<defs>
<clipPath id="clip0_2_107">
<rect width="24" height="24" fill="white"/>
</clipPath>
</defs>
</svg>
